<svg id="Layer_1" data-name="Layer 1" xmlns="http://www.w3.org/2000/svg" viewBox="0 0 904.47 22.51"><defs><style>.cls-1{fill:#fff;}</style></defs><title>Untitled-1</title><path class="cls-1" d="M90.45,530.67v14.17a3.94,3.94,0,0,1-1.27,2.92A4.06,4.06,0,0,1,86.27,549H78.56a.91.91,0,0,1-1-1V527.53a.91.91,0,0,1,1-1h7.69a4.06,4.06,0,0,1,2.93,1.26A4,4,0,0,1,90.45,530.67ZM86.3,544.85v-14.2H81.7v14.2Z" transform="translate(-77.53 -526.5)"/><path class="cls-1" d="M113.52,549h-2.1a.91.91,0,0,1-1-1V527.53a.91.91,0,0,1,1-1h2.1a.91.91,0,0,1,1,1V548A.91.91,0,0,1,113.52,549Z" transform="translate(-77.53 -526.5)"/><path class="cls-1" d="M143.13,549h-4.48a4,4,0,0,1-2.91-1.23,4,4,0,0,1-1.25-2.9V530.65a4,4,0,0,1,1.27-2.9,4,4,0,0,1,2.91-1.25h4.46a4.06,4.06,0,0,1,2.92,1.25,4,4,0,0,1,1.26,2.9v.72a.9.9,0,0,1-1,1h-2.11a.9.9,0,0,1-1-1v-.72h-4.5v14.2h4.5v-5h-1.82a.9.9,0,0,1-1-1V536.7a.9.9,0,0,1,1-1h5a.9.9,0,0,1,1,1v8.15a4,4,0,0,1-1.26,2.92A4.05,4.05,0,0,1,143.13,549Z" transform="translate(-77.53 -526.5)"/><path class="cls-1" d="M170.39,549h-2.11a.91.91,0,0,1-1-1V527.53a.91.91,0,0,1,1-1h2.11a.91.91,0,0,1,1,1V548A.91.91,0,0,1,170.39,549Z" transform="translate(-77.53 -526.5)"/><path class="cls-1" d="M202.74,530.65h-3.09V548a.91.91,0,0,1-1,1h-2.11a.91.91,0,0,1-1-1V530.65h-3.1a.9.9,0,0,1-1-1v-2.11a.91.91,0,0,1,1-1h10.36a.91.91,0,0,1,1,1v2.11A.9.9,0,0,1,202.74,530.65Z" transform="translate(-77.53 -526.5)"/><path class="cls-1" d="M230.06,548.18l-.83-4.19h-4.36l-.83,4.19a.94.94,0,0,1-1,.83h-2.13a1,1,0,0,1-.8-.37,1,1,0,0,1-.22-.86l4.1-20.45a.92.92,0,0,1,1-.83h4.16a.93.93,0,0,1,1,.83l4.09,20.45a1,1,0,0,1-.22.86,1,1,0,0,1-.79.37h-2.15A.92.92,0,0,1,230.06,548.18Zm-1.66-8.34-1.35-6.74-1.35,6.74Z" transform="translate(-77.53 -526.5)"/><path class="cls-1" d="M263.53,549h-5.31a4,4,0,0,1-4-4V527.53a.91.91,0,0,1,1-1h2.11a.91.91,0,0,1,1,1v17.32h5.11a.91.91,0,0,1,1,1V548A.9.9,0,0,1,263.53,549Z" transform="translate(-77.53 -526.5)"/><path class="cls-1" d="M322.5,530.67v14.17a3.94,3.94,0,0,1-1.27,2.92,4.06,4.06,0,0,1-2.91,1.25h-7.71a.91.91,0,0,1-1-1V527.53a.91.91,0,0,1,1-1h7.69a4.06,4.06,0,0,1,2.93,1.26A4,4,0,0,1,322.5,530.67Zm-4.15,14.18v-14.2h-4.6v14.2Z" transform="translate(-77.53 -526.5)"/><path class="cls-1" d="M352.25,549h-5.86a4,4,0,0,1-3.95-4V527.53a.91.91,0,0,1,1-1h8.69a.91.91,0,0,1,1,1v2.11a.9.9,0,0,1-1,1h-5.57v5h4.66a.91.91,0,0,1,1,1v2.11a.91.91,0,0,1-1,1h-4.66v5h5.66a.91.91,0,0,1,1,1V548A.91.91,0,0,1,352.25,549Z" transform="translate(-77.53 -526.5)"/><path class="cls-1" d="M380.21,539.48q.87-4,1.4-6.3c.36-1.57.79-3.53,1.31-5.88a.94.94,0,0,1,1-.8h2.15a1,1,0,0,1,.81.39,1,1,0,0,1,.2.86l-4.57,20.47a.92.92,0,0,1-1,.79h-2.62a.91.91,0,0,1-1-.79l-4.57-20.47a.94.94,0,0,1,.2-.86,1,1,0,0,1,.8-.39h2.15a1,1,0,0,1,1,.8q.78,3.53,1.29,5.88C379.13,534.74,379.61,536.84,380.21,539.48Z" transform="translate(-77.53 -526.5)"/><path class="cls-1" d="M416.94,549h-5.86a4,4,0,0,1-4-4V527.53a.91.91,0,0,1,1-1h8.7a.91.91,0,0,1,1,1v2.11a.9.9,0,0,1-1,1h-5.57v5h4.65a.91.91,0,0,1,1,1v2.11a.91.91,0,0,1-1,1h-4.65v5h5.66a.92.92,0,0,1,1,1V548A.91.91,0,0,1,416.94,549Z" transform="translate(-77.53 -526.5)"/><path class="cls-1" d="M447.19,549h-5.32a4,4,0,0,1-4-4V527.53a.91.91,0,0,1,1-1H441a.91.91,0,0,1,1,1v17.32h5.12a.9.9,0,0,1,1,1V548A.9.9,0,0,1,447.19,549Z" transform="translate(-77.53 -526.5)"/><path class="cls-1" d="M477,549h-4.75a4,4,0,0,1-2.9-1.23,3.92,3.92,0,0,1-1.25-2.9V530.64a4,4,0,0,1,1.25-2.89,4,4,0,0,1,2.9-1.25H477a4.06,4.06,0,0,1,2.92,1.25,4,4,0,0,1,1.27,2.9v14.22a4,4,0,0,1-1.27,2.9A4,4,0,0,1,477,549Zm0-4.16v-14.2h-4.75v14.2Z" transform="translate(-77.53 -526.5)"/><path class="cls-1" d="M509.48,541.37H505.3V548a.9.9,0,0,1-1,1h-2.11a.91.91,0,0,1-1-1V527.53a.91.91,0,0,1,1-1h7.32a4.06,4.06,0,0,1,2.91,1.25,4,4,0,0,1,1.28,2.92v6.53a4,4,0,0,1-1.28,2.93A4.05,4.05,0,0,1,509.48,541.37Zm0-4.15v-6.57H505.3v6.57Z" transform="translate(-77.53 -526.5)"/><path class="cls-1" d="M548.14,549H546a.91.91,0,0,1-1-1V536.33l-2.69,5.74a.94.94,0,0,1-.93.59.92.92,0,0,1-.92-.59l-2.69-5.74V548a.91.91,0,0,1-1,1h-2.11a.9.9,0,0,1-1-1V527.53a.9.9,0,0,1,1-1h2.48a1,1,0,0,1,.93.6l3.34,7.14,3.35-7.14a1,1,0,0,1,.93-.6h2.48a.91.91,0,0,1,1,1V548A.91.91,0,0,1,548.14,549Z" transform="translate(-77.53 -526.5)"/><path class="cls-1" d="M578.92,549h-5.86a4,4,0,0,1-3.95-4V527.53a.91.91,0,0,1,1-1h8.69a.91.91,0,0,1,1,1v2.11a.9.9,0,0,1-1,1h-5.57v5h4.66a.91.91,0,0,1,1,1v2.11a.91.91,0,0,1-1,1h-4.66v5h5.66a.91.91,0,0,1,1,1V548A.91.91,0,0,1,578.92,549Z" transform="translate(-77.53 -526.5)"/><path class="cls-1" d="M608.31,548.35,604,537.22V548a.91.91,0,0,1-1,1h-2.08a.91.91,0,0,1-1-1V527.53a.91.91,0,0,1,1-1h2.72a1,1,0,0,1,1,.66l4.3,11.15V527.53a.91.91,0,0,1,1-1H612a.91.91,0,0,1,1,1V548a.9.9,0,0,1-1,1h-2.72A1,1,0,0,1,608.31,548.35Z" transform="translate(-77.53 -526.5)"/><path class="cls-1" d="M644.35,530.65h-3.09V548a.91.91,0,0,1-1,1h-2.11a.91.91,0,0,1-1-1V530.65H634a.9.9,0,0,1-1-1v-2.11a.91.91,0,0,1,1-1h10.36a.91.91,0,0,1,1,1v2.11A.9.9,0,0,1,644.35,530.65Z" transform="translate(-77.53 -526.5)"/><path class="cls-1" d="M700.7,548.18l-.83-4.19h-4.36l-.83,4.19a.94.94,0,0,1-1,.83h-2.13a1,1,0,0,1-.8-.37,1,1,0,0,1-.22-.86l4.1-20.45a.92.92,0,0,1,1-.83h4.16a1,1,0,0,1,1,.83l4.08,20.45a1,1,0,0,1-1,1.23h-2.15A.93.93,0,0,1,700.7,548.18ZM699,539.84l-1.35-6.74-1.35,6.74Z" transform="translate(-77.53 -526.5)"/><path class="cls-1" d="M733.31,548.35,729,537.22V548a.91.91,0,0,1-1,1h-2.08a.91.91,0,0,1-1-1V527.53a.91.91,0,0,1,1-1h2.72a1,1,0,0,1,1,.66l4.3,11.15V527.53a.91.91,0,0,1,1-1H737a.91.91,0,0,1,1,1V548a.9.9,0,0,1-1,1h-2.72A1,1,0,0,1,733.31,548.35Z" transform="translate(-77.53 -526.5)"/><path class="cls-1" d="M770.89,530.67v14.17a4,4,0,0,1-1.28,2.92A4.06,4.06,0,0,1,766.7,549H759a.91.91,0,0,1-1-1V527.53a.91.91,0,0,1,1-1h7.69a4,4,0,0,1,2.92,1.26A4,4,0,0,1,770.89,530.67Zm-4.16,14.18v-14.2h-4.6v14.2Z" transform="translate(-77.53 -526.5)"/><path class="cls-1" d="M828.84,530.67v14.17a4,4,0,0,1-1.28,2.92,4.06,4.06,0,0,1-2.91,1.25H817a.91.91,0,0,1-1-1V527.53a.91.91,0,0,1,1-1h7.69a4,4,0,0,1,2.92,1.26A4,4,0,0,1,828.84,530.67Zm-4.16,14.18v-14.2h-4.6v14.2Z" transform="translate(-77.53 -526.5)"/><path class="cls-1" d="M858.59,549h-5.86a4,4,0,0,1-4-4V527.53a.91.91,0,0,1,1-1h8.7a.91.91,0,0,1,1,1v2.11a.9.9,0,0,1-1,1h-5.57v5h4.65a.91.91,0,0,1,1,1v2.11a.91.91,0,0,1-1,1h-4.65v5h5.66a.91.91,0,0,1,1,1V548A.91.91,0,0,1,858.59,549Z" transform="translate(-77.53 -526.5)"/><path class="cls-1" d="M887.91,549h-4.19a4,4,0,0,1-2.91-1.24,4,4,0,0,1-1.25-2.92v-.78a.91.91,0,0,1,1-1h2.11a.91.91,0,0,1,1,1v.78h4.2v-5h-4.19a4,4,0,0,1-2.91-1.25,4,4,0,0,1-1.25-2.91v-5a4,4,0,0,1,1.25-2.9,4,4,0,0,1,2.91-1.25h4.19a4,4,0,0,1,2.9,1.25,3.93,3.93,0,0,1,1.25,2.89v.69a.9.9,0,0,1-1,1h-2.11a.9.9,0,0,1-1-1v-.68h-4.2v5h4.2a4,4,0,0,1,2.9,1.25,3.93,3.93,0,0,1,1.25,2.89v5.06a3.92,3.92,0,0,1-1.25,2.91A4,4,0,0,1,887.91,549Z" transform="translate(-77.53 -526.5)"/><path class="cls-1" d="M915.14,549H913a.91.91,0,0,1-1-1V527.53a.91.91,0,0,1,1-1h2.11a.91.91,0,0,1,1,1V548A.91.91,0,0,1,915.14,549Z" transform="translate(-77.53 -526.5)"/><path class="cls-1" d="M944.74,549h-4.48a4,4,0,0,1-2.91-1.23,4,4,0,0,1-1.25-2.9V530.65a4,4,0,0,1,1.27-2.9,4,4,0,0,1,2.92-1.25h4.45a4.06,4.06,0,0,1,2.92,1.25,4,4,0,0,1,1.27,2.9v.72a.9.9,0,0,1-1,1H945.8a.9.9,0,0,1-1-1v-.72h-4.5v14.2h4.5v-5H943a.9.9,0,0,1-1-1V536.7a.9.9,0,0,1,1-1h5a.9.9,0,0,1,1,1v8.15a4,4,0,0,1-1.27,2.92A4.05,4.05,0,0,1,944.74,549Z" transform="translate(-77.53 -526.5)"/><path class="cls-1" d="M977.29,548.35,973,537.22V548a.91.91,0,0,1-1,1h-2.08a.91.91,0,0,1-1-1V527.53a.91.91,0,0,1,1-1h2.73a1,1,0,0,1,1,.66l4.29,11.15V527.53a.91.91,0,0,1,1-1H981a.91.91,0,0,1,1,1V548a.9.9,0,0,1-1,1h-2.72A.93.93,0,0,1,977.29,548.35Z" transform="translate(-77.53 -526.5)"/></svg>