<svg id="Layer_1" data-name="Layer 1" xmlns="http://www.w3.org/2000/svg" viewBox="0 0 1920 1080"><defs><style>.cls-1,.cls-2{fill:none;}.cls-2{stroke:#4d4d4d;stroke-miterlimit:10;stroke-width:3px;}</style></defs><title>lines</title><rect width="1920" height="1080"/><line class="cls-1" x1="959" y1="1080" x2="961"/><line class="cls-2" x1="959.5" y1="978.5" x2="960.5" y2="101.5"/><line class="cls-2" x1="1035.5" y1="978.5" x2="1036.5" y2="101.5"/><line class="cls-2" x1="1112.5" y1="978.5" x2="1113.5" y2="101.5"/><line class="cls-2" x1="882.5" y1="978.5" x2="883.5" y2="101.5"/><line class="cls-2" x1="806.5" y1="978.5" x2="807.5" y2="101.5"/><line class="cls-2" x1="729.5" y1="905.72" x2="730.5" y2="174.28"/><line class="cls-2" x1="653.5" y1="828.28" x2="654.5" y2="251.72"/><line class="cls-2" x1="577.5" y1="750.28" x2="578.5" y2="329.72"/><line class="cls-2" x1="501.5" y1="676.5" x2="502.5" y2="403.5"/><line class="cls-2" x1="425.5" y1="676.5" x2="426.5" y2="403.5"/><line class="cls-2" x1="1190.5" y1="905.72" x2="1189.5" y2="174.28"/><line class="cls-2" x1="1266.5" y1="828.28" x2="1265.5" y2="251.72"/><line class="cls-2" x1="1342.5" y1="750.28" x2="1341.5" y2="329.72"/><line class="cls-2" x1="1418.5" y1="676.5" x2="1417.5" y2="403.5"/><line class="cls-2" x1="1494.5" y1="676.5" x2="1493.5" y2="403.5"/><line class="cls-2" x1="1570.65" y1="607.25" x2="1569.36" y2="473.39"/><line class="cls-2" x1="1646.65" y1="607.33" x2="1645.36" y2="473.47"/><line class="cls-2" x1="272.65" y1="606.56" x2="271.36" y2="472.69"/><line class="cls-2" x1="348.65" y1="606.6" x2="347.36" y2="472.73"/></svg>